<?xml version="1.0" encoding="utf-8"?>
<!-- Generator: Adobe Illustrator 24.0.3, SVG Export Plug-In . SVG Version: 6.00 Build 0)  -->
<svg version="1.1" id="レイヤー_1" xmlns="http://www.w3.org/2000/svg" xmlns:xlink="http://www.w3.org/1999/xlink" x="0px"
	 y="0px" viewBox="0 0 129 44.8" style="enable-background:new 0 0 129 44.8;" xml:space="preserve">
<style type="text/css">
	.st0{fill:#686867;}
	.st1{fill:#DEDFDF;}
	.st2{fill:#FFFFFF;}
</style>
<title>highlow_dot_com</title>
<desc>Created with Sketch.</desc>
<g id="artwork:-dTop">
	<g id="New-logos-export" transform="translate(-380.000000, -105.000000)">
		<g id="highlow_dot_com" transform="translate(380.000000, 105.000000)">
			<g id="HighLow_Logo_rgb.svg">
				<polygon id="Shape" class="st0" points="129,36.5 97,42.2 65,36.5 65,23.4 65,10.2 97,16 129,10.2 129,23.4 				"/>
				<polygon id="Shape_1_" class="st1" points="64,36.2 32,30.5 0,36.2 0,23.1 0,10 32,4.2 64,10 64,23.1 				"/>
				<g id="Group" transform="translate(4.000000, 10.000000)">
					<polygon id="Shape_2_" points="0.2,16.1 0.2,4.5 3.9,4.5 3.9,8.8 12.3,8.8 12.3,4.5 16,4.5 16,16.1 12.3,16.1 12.3,11.6 
						3.9,11.6 3.9,16.1 					"/>
					<polygon id="Shape_3_" points="17.3,16.1 17.3,4.5 21,4.5 21,16.1 					"/>
					<path id="Shape_4_" d="M37.9,8.4h-3.6c0-0.4-0.1-0.7-0.2-0.9c-0.2-0.3-0.7-0.4-1.3-0.4h-0.9l-1.3,0l-1.4,0c-0.9,0-1.4,0-1.6,0
						c-0.2,0-0.4,0.1-0.6,0.1c-0.4,0.1-0.7,0.3-0.9,0.6c-0.2,0.3-0.3,1.2-0.3,2.8c0,0.9,0.1,1.6,0.2,1.9c0.2,0.5,0.6,0.8,1.2,0.9
						c0.3,0.1,1.1,0.1,2.4,0.1h1.5c0.9,0,1.6,0,1.9,0c0.8-0.1,1.3-0.4,1.4-0.9c0-0.1,0-0.3,0-0.6v-0.2h-4.7V9.6h8.3v1.6
						c0,1.6-0.1,2.7-0.3,3.2c-0.2,0.6-0.6,1-1,1.2c-0.6,0.3-1.4,0.5-2.2,0.5c-0.5,0-2.1,0-4.6,0c-2.4,0-4-0.1-4.6-0.2
						c-0.9-0.2-1.6-0.5-2.1-1c-0.4-0.5-0.7-1.1-0.8-2c-0.1-0.5-0.1-1.3-0.1-2.5c0-1.3,0.1-2.2,0.1-2.7c0.2-1,0.5-1.7,1-2.2
						c0.6-0.5,1.7-0.9,3.4-1c0.9,0,2.1-0.1,3.7-0.1c2.8,0,4.5,0.1,5.1,0.2c1.1,0.2,1.8,0.8,2.2,1.6C37.8,6.7,37.9,7.4,37.9,8.4z"/>
					<polygon id="Shape_5_" points="39,16.1 39,4.5 42.7,4.5 42.7,8.8 51.1,8.8 51.1,4.5 54.8,4.5 54.8,16.1 51.1,16.1 51.1,11.6 
						42.7,11.6 42.7,16.1 					"/>
				</g>
				<g id="Group_1_" transform="translate(70.000000, 16.000000)">
					<polygon id="Shape_6_" class="st2" points="0.2,15.9 0.2,4.4 3.9,4.4 3.9,13.1 14,13.1 14,15.9 					"/>
					<path id="Shape_7_" class="st2" d="M23.3,4.2c2.9,0,4.7,0,5.4,0.2c1,0.2,1.8,0.5,2.2,1.1c0.4,0.5,0.7,1.2,0.8,2
						c0.1,0.5,0.1,1.4,0.1,2.8c0,1.7-0.2,2.9-0.5,3.6c-0.3,0.6-0.7,1.1-1.3,1.4c-0.4,0.2-0.9,0.4-1.4,0.5c-0.5,0.1-1.2,0.1-2.2,0.2
						c-0.8,0-1.8,0-3,0c-2.7,0-4.4-0.1-5.2-0.2c-0.9-0.2-1.7-0.5-2.1-0.9c-0.4-0.4-0.8-1.1-0.9-1.9c-0.1-0.5-0.2-1.5-0.2-3
						c0-1,0-1.6,0.1-2c0-0.4,0.1-0.8,0.2-1.2C15.6,6,16,5.4,16.7,5.1c0.7-0.4,1.8-0.7,3.3-0.8C20.7,4.3,21.8,4.2,23.3,4.2z
						 M23.6,7.1c-1.5,0-2.5,0-3,0.1c-0.7,0.1-1.2,0.4-1.4,0.8C19,8.3,19,9,19,10.1c0,1.2,0.1,1.9,0.3,2.3c0.2,0.4,0.7,0.7,1.5,0.8
						c0.4,0.1,1.3,0.1,2.8,0.1c1.8,0,2.9-0.1,3.4-0.2c0.5-0.1,0.9-0.3,1.1-0.6c0.2-0.2,0.2-0.7,0.3-1.2c0-0.3,0-0.7,0-1.2
						c0-1.1-0.1-1.8-0.3-2.1c-0.1-0.2-0.2-0.3-0.4-0.5c-0.3-0.2-0.7-0.2-1.2-0.3C25.7,7.1,24.8,7.1,23.6,7.1z"/>
					<polygon id="Shape_8_" class="st2" points="41.6,15.9 43.9,8.6 46,15.9 51.2,15.9 55.8,4.3 51.7,4.3 48.7,12.3 46.2,4.3 
						41.5,4.3 38.9,12.3 36,4.3 32,4.3 36.5,15.9 					"/>
				</g>
			</g>
		</g>
	</g>
</g>
</svg>
